<svg xmlns="http://www.w3.org/2000/svg" width="1600" height="900" viewBox="0 0 1600 900"><defs><radialGradient id="a" cx="25%" cy="20%"><stop offset="0" stop-color="#65e8ff" stop-opacity=".42"/><stop offset="1" stop-color="#05050a" stop-opacity="0"/></radialGradient><radialGradient id="b" cx="80%" cy="55%"><stop offset="0" stop-color="#a78bfa" stop-opacity=".35"/><stop offset="1" stop-color="#05050a" stop-opacity="0"/></radialGradient></defs><rect width="1600" height="900" fill="#05050a"/><rect width="1600" height="900" fill="url(#a)"/><rect width="1600" height="900" fill="url(#b)"/><g opacity=".18" stroke="#fff"><path d="M0 120h1600M0 240h1600M0 360h1600M0 480h1600M0 600h1600M0 720h1600M0 840h1600M120 0v900M240 0v900M360 0v900M480 0v900M600 0v900M720 0v900M840 0v900M960 0v900M1080 0v900M1200 0v900M1320 0v900M1440 0v900"/></g></svg>